<svg xmlns="http://www.w3.org/2000/svg" viewBox="0 0 980 406" width="100%" role="img" aria-label="Clock start / stop on one full update_weights">
<rect width="980" height="406" fill="#ffffff"/>
<text x="236" y="22" fill="#1b1b1b" font-family="ui-sans-serif, system-ui, sans-serif" font-size="15" font-weight="600">Clock start / stop on one full update_weights</text>
<text x="236" y="40" fill="#5a5a5a" font-family="ui-sans-serif, system-ui, sans-serif" font-size="11">Pipeline order, not measured seconds. Two replicas after each fill. Filled dot = start. Tick = stop. Diamond = byte sample.</text>
<rect x="236" y="54" width="88" height="318" fill="#f2f2ee"/>
<text x="280" y="72" text-anchor="middle" fill="#5a5a5a" font-family="ui-sans-serif, system-ui, sans-serif" font-size="10">b0 fill</text>
<rect x="324" y="54" width="36" height="318" fill="#e6e6e0"/>
<text x="342" y="72" text-anchor="middle" fill="#5a5a5a" font-family="ui-sans-serif, system-ui, sans-serif" font-size="9">load</text>
<rect x="360" y="54" width="32" height="318" fill="#f2f2ee"/>
<text x="376" y="72" text-anchor="middle" fill="#5a5a5a" font-family="ui-sans-serif, system-ui, sans-serif" font-size="9">cpu</text>
<rect x="392" y="54" width="44" height="318" fill="#e6e6e0"/>
<text x="414" y="72" text-anchor="middle" fill="#5a5a5a" font-family="ui-sans-serif, system-ui, sans-serif" font-size="9">RDMA</text>
<rect x="436" y="54" width="36" height="318" fill="#f2f2ee"/>
<text x="454" y="72" text-anchor="middle" fill="#5a5a5a" font-family="ui-sans-serif, system-ui, sans-serif" font-size="9">load</text>
<rect x="472" y="54" width="32" height="318" fill="#e6e6e0"/>
<text x="488" y="72" text-anchor="middle" fill="#5a5a5a" font-family="ui-sans-serif, system-ui, sans-serif" font-size="9">cpu</text>
<rect x="504" y="54" width="44" height="318" fill="#f2f2ee"/>
<text x="526" y="72" text-anchor="middle" fill="#5a5a5a" font-family="ui-sans-serif, system-ui, sans-serif" font-size="9">RDMA</text>
<rect x="548" y="54" width="88" height="318" fill="#e6e6e0"/>
<text x="592" y="72" text-anchor="middle" fill="#5a5a5a" font-family="ui-sans-serif, system-ui, sans-serif" font-size="10">b1 fill</text>
<rect x="636" y="54" width="36" height="318" fill="#f2f2ee"/>
<text x="654" y="72" text-anchor="middle" fill="#5a5a5a" font-family="ui-sans-serif, system-ui, sans-serif" font-size="9">load</text>
<rect x="672" y="54" width="32" height="318" fill="#e6e6e0"/>
<text x="688" y="72" text-anchor="middle" fill="#5a5a5a" font-family="ui-sans-serif, system-ui, sans-serif" font-size="9">cpu</text>
<rect x="704" y="54" width="44" height="318" fill="#f2f2ee"/>
<text x="726" y="72" text-anchor="middle" fill="#5a5a5a" font-family="ui-sans-serif, system-ui, sans-serif" font-size="9">RDMA</text>
<rect x="748" y="54" width="36" height="318" fill="#e6e6e0"/>
<text x="766" y="72" text-anchor="middle" fill="#5a5a5a" font-family="ui-sans-serif, system-ui, sans-serif" font-size="9">load</text>
<rect x="784" y="54" width="32" height="318" fill="#f2f2ee"/>
<text x="800" y="72" text-anchor="middle" fill="#5a5a5a" font-family="ui-sans-serif, system-ui, sans-serif" font-size="9">cpu</text>
<rect x="816" y="54" width="44" height="318" fill="#e6e6e0"/>
<text x="838" y="72" text-anchor="middle" fill="#5a5a5a" font-family="ui-sans-serif, system-ui, sans-serif" font-size="9">RDMA</text>
<rect x="860" y="54" width="100" height="318" fill="#f2f2ee"/>
<text x="910" y="72" text-anchor="middle" fill="#5a5a5a" font-family="ui-sans-serif, system-ui, sans-serif" font-size="10">wait</text>
<line x1="236" y1="140" x2="960" y2="140" stroke="#d6d6d0"/>
<text x="12" y="105" fill="#1b1b1b" font-family="ui-sans-serif, system-ui, sans-serif" font-size="12" font-weight="600">trainer_active_time</text>
<text x="12" y="121" fill="#5a5a5a" font-family="ui-sans-serif, system-ui, sans-serif" font-size="10">first next(iterator) → wait_transfers()</text>
<rect x="236" y="103" width="724" height="16" rx="3" fill="#c45a16"/>
<circle cx="236" cy="111" r="4.5" fill="#c45a16"/>
<rect x="958" y="103" width="4" height="16" fill="#1b1b1b"/>
<text x="246" y="99" fill="#5a5a5a" font-family="ui-sans-serif, system-ui, sans-serif" font-size="10">one wall clock</text>
<line x1="236" y1="198" x2="960" y2="198" stroke="#d6d6d0"/>
<text x="12" y="163" fill="#1b1b1b" font-family="ui-sans-serif, system-ui, sans-serif" font-size="12" font-weight="600">trainer_prep_time gpu</text>
<text x="12" y="179" fill="#5a5a5a" font-family="ui-sans-serif, system-ui, sans-serif" font-size="10">each fill + each replica load; sum</text>
<rect x="236" y="161" width="88" height="16" rx="3" fill="#4a4a4a"/>
<circle cx="236" cy="169" r="4.5" fill="#c45a16"/>
<rect x="322" y="161" width="4" height="16" fill="#1b1b1b"/>
<text x="242" y="157" fill="#5a5a5a" font-family="ui-sans-serif, system-ui, sans-serif" font-size="9">bucket 0</text>
<rect x="324" y="161" width="36" height="16" rx="3" fill="#4a4a4a"/>
<circle cx="324" cy="169" r="4.5" fill="#c45a16"/>
<rect x="358" y="161" width="4" height="16" fill="#1b1b1b"/>
<rect x="436" y="161" width="36" height="16" rx="3" fill="#4a4a4a"/>
<circle cx="436" cy="169" r="4.5" fill="#c45a16"/>
<rect x="470" y="161" width="4" height="16" fill="#1b1b1b"/>
<rect x="548" y="161" width="88" height="16" rx="3" fill="#4a4a4a"/>
<circle cx="548" cy="169" r="4.5" fill="#c45a16"/>
<rect x="634" y="161" width="4" height="16" fill="#1b1b1b"/>
<text x="554" y="157" fill="#5a5a5a" font-family="ui-sans-serif, system-ui, sans-serif" font-size="9">bucket 1</text>
<rect x="636" y="161" width="36" height="16" rx="3" fill="#4a4a4a"/>
<circle cx="636" cy="169" r="4.5" fill="#c45a16"/>
<rect x="670" y="161" width="4" height="16" fill="#1b1b1b"/>
<rect x="748" y="161" width="36" height="16" rx="3" fill="#4a4a4a"/>
<circle cx="748" cy="169" r="4.5" fill="#c45a16"/>
<rect x="782" y="161" width="4" height="16" fill="#1b1b1b"/>
<line x1="236" y1="256" x2="960" y2="256" stroke="#d6d6d0"/>
<text x="12" y="221" fill="#1b1b1b" font-family="ui-sans-serif, system-ui, sans-serif" font-size="12" font-weight="600">trainer_prep_time cpu</text>
<text x="12" y="237" fill="#5a5a5a" font-family="ui-sans-serif, system-ui, sans-serif" font-size="10">one interval per replica; then sum</text>
<rect x="360" y="219" width="32" height="16" rx="3" fill="#4a4a4a"/>
<circle cx="360" cy="227" r="4.5" fill="#c45a16"/>
<rect x="390" y="219" width="4" height="16" fill="#1b1b1b"/>
<text x="366" y="215" fill="#5a5a5a" font-family="ui-sans-serif, system-ui, sans-serif" font-size="9">r0</text>
<rect x="472" y="219" width="32" height="16" rx="3" fill="#4a4a4a"/>
<circle cx="472" cy="227" r="4.5" fill="#c45a16"/>
<rect x="502" y="219" width="4" height="16" fill="#1b1b1b"/>
<text x="478" y="215" fill="#5a5a5a" font-family="ui-sans-serif, system-ui, sans-serif" font-size="9">r1</text>
<rect x="672" y="219" width="32" height="16" rx="3" fill="#4a4a4a"/>
<circle cx="672" cy="227" r="4.5" fill="#c45a16"/>
<rect x="702" y="219" width="4" height="16" fill="#1b1b1b"/>
<text x="678" y="215" fill="#5a5a5a" font-family="ui-sans-serif, system-ui, sans-serif" font-size="9">r0</text>
<rect x="784" y="219" width="32" height="16" rx="3" fill="#4a4a4a"/>
<circle cx="784" cy="227" r="4.5" fill="#c45a16"/>
<rect x="814" y="219" width="4" height="16" fill="#1b1b1b"/>
<text x="790" y="215" fill="#5a5a5a" font-family="ui-sans-serif, system-ui, sans-serif" font-size="9">r1</text>
<line x1="236" y1="314" x2="960" y2="314" stroke="#d6d6d0"/>
<text x="12" y="279" fill="#1b1b1b" font-family="ui-sans-serif, system-ui, sans-serif" font-size="12" font-weight="600">wire_time</text>
<text x="12" y="295" fill="#5a5a5a" font-family="ui-sans-serif, system-ui, sans-serif" font-size="10">one interval per replica; max sessions</text>
<rect x="392" y="277" width="44" height="16" rx="3" fill="#4a4a4a"/>
<circle cx="392" cy="285" r="4.5" fill="#c45a16"/>
<rect x="434" y="277" width="4" height="16" fill="#1b1b1b"/>
<text x="400" y="273" fill="#5a5a5a" font-family="ui-sans-serif, system-ui, sans-serif" font-size="9">r0</text>
<rect x="504" y="277" width="44" height="16" rx="3" fill="#4a4a4a"/>
<circle cx="504" cy="285" r="4.5" fill="#c45a16"/>
<rect x="546" y="277" width="4" height="16" fill="#1b1b1b"/>
<text x="512" y="273" fill="#5a5a5a" font-family="ui-sans-serif, system-ui, sans-serif" font-size="9">r1</text>
<rect x="704" y="277" width="44" height="16" rx="3" fill="#4a4a4a"/>
<circle cx="704" cy="285" r="4.5" fill="#c45a16"/>
<rect x="746" y="277" width="4" height="16" fill="#1b1b1b"/>
<text x="712" y="273" fill="#5a5a5a" font-family="ui-sans-serif, system-ui, sans-serif" font-size="9">r0</text>
<rect x="816" y="277" width="44" height="16" rx="3" fill="#4a4a4a"/>
<circle cx="816" cy="285" r="4.5" fill="#c45a16"/>
<rect x="858" y="277" width="4" height="16" fill="#1b1b1b"/>
<text x="824" y="273" fill="#5a5a5a" font-family="ui-sans-serif, system-ui, sans-serif" font-size="9">r1</text>
<line x1="236" y1="372" x2="960" y2="372" stroke="#d6d6d0"/>
<text x="12" y="337" fill="#1b1b1b" font-family="ui-sans-serif, system-ui, sans-serif" font-size="12" font-weight="600">wire_bytes (counter)</text>
<text x="12" y="353" fill="#5a5a5a" font-family="ui-sans-serif, system-ui, sans-serif" font-size="10">sampled in each cpu prep; then sum</text>
<polygon points="376,335 383,343 376,351 369,343" fill="#1b1b1b"/>
<polygon points="488,335 495,343 488,351 481,343" fill="#1b1b1b"/>
<polygon points="688,335 695,343 688,351 681,343" fill="#1b1b1b"/>
<polygon points="800,335 807,343 800,351 793,343" fill="#1b1b1b"/>
<line x1="236" y1="372" x2="960" y2="372" stroke="#bdbdb8"/>
</svg>
